<svg viewBox="0 0 200 200" xmlns="http://www.w3.org/2000/svg">
  <!-- Cloud -->
  <path d="M160,100 C160,82.33 145.67,68 128,68 C124.72,68 121.55,68.43 118.53,69.25 C111.88,54.82 97.75,45 81.33,45 C58.22,45 39.33,63.89 39.33,87 C39.33,87.36 39.34,87.72 39.35,88.08 C28.51,91.54 20,101.25 20,113 C20,127.36 31.64,139 46,139 L148,139 C162.36,139 174,127.36 174,113 C174,106.29 170.93,100.32 166.17,96.08 C164.31,102.57 160,100 160,100 Z" fill="#FFFFFF" stroke="#CCCCCC" stroke-width="2" />
  
  <!-- Sun peeking from behind cloud -->
  <circle cx="81.33" cy="87" r="30" fill="#FFCC00" />
  
  <!-- Sunscreen bottle with "X" -->
  <g transform="translate(80, 70)">
    <rect x="0" y="20" width="30" height="50" rx="5" ry="5" fill="#3498db" opacity="0.5" />
    <rect x="5" y="0" width="20" height="25" rx="3" ry="3" fill="#2980b9" opacity="0.5" />
    <text x="15" y="50" text-anchor="middle" fill="white" font-family="Arial" font-size="12" font-weight="bold">SPF</text>
    <line x1="0" y1="20" x2="30" y2="70" stroke="#E74C3C" stroke-width="4" />
    <line x1="30" y1="20" x2="0" y2="70" stroke="#E74C3C" stroke-width="4" />
  </g>
</svg>